<svg xmlns="http://www.w3.org/2000/svg" xmlns:xlink="http://www.w3.org/1999/xlink" width="18px" height="12px" viewBox="0 0 18 12" version="1.1">
    <title>amex-mini</title>
    <defs>
        <linearGradient x1="50%" y1="100%" x2="50%" y2="2.61080995%" id="linearGradient-1">
            <stop stop-color="#000000" stop-opacity="0.06" offset="0%"/>
            <stop stop-color="#000000" stop-opacity="0.03" offset="100%"/>
        </linearGradient>
        <path d="M0,2.0085302 C0,0.899249601 0.892622799,1.8189894e-12 1.99508929,1.8189894e-12 L16.0049107,1.8189894e-12 C17.1067681,1.8189894e-12 18,0.901950359 18,2.0085302 L18,9.9914698 C18,11.1007504 17.1073772,12 16.0049107,12 L1.99508929,12 C0.893231902,12 0,11.0980496 0,9.9914698 L0,2.0085302 Z" id="path-2"/>
    </defs>
    <g id="autobiller-phase-1" stroke="none" stroke-width="1" fill="none" fill-rule="evenodd">
        <g id="amex-mini">
            <g id="fund-sources-/-x-/-background-shim-mini">
                <mask id="mask-3" fill="white">
                    <use xlink:href="#path-2"/>
                </mask>
                <use id="Mask" fill="url(#linearGradient-1)" xlink:href="#path-2"/>
            </g>
            <path d="M17.9995269,6.48210144 L16.8196062,7.84260274 L17.9995269,9.20774841 L17.9995269,10.1009166 L17.9740143,10.2898058 L17.9740143,10.2898058 L17.2133568,10.2890999 C16.8129472,10.2883939 16.3824161,10.2871586 15.9217637,10.2853938 L15.9217637,10.2853938 L15.2290411,9.52239726 L14.489238,10.2853938 L9.95932648,10.2853938 L9.959,5.913 L7.48,5.9130137 L9.70010274,1 L9.70010274,1 L11.9679795,1 L12.2630223,1.57752568 L12.2630223,1 L14.9152483,1 L15.4969349,2.26809075 L16.0652911,1 L16.0652911,1 L17.7299744,1 C17.8323643,1.18513997 17.906498,1.40002441 17.9523756,1.64465332 L17.96,1.697 L16.5873373,1.69765411 L15.5390839,4.08635274 L14.4016781,1.69765411 L12.9824829,1.69765411 L12.9824829,5.02919521 L11.5098887,1.69765411 L10.2143664,1.69765411 C10.2143664,1.69765411 8.65747432,5.22237158 8.65747432,5.22237158 L8.65747432,5.22237158 L9.60455479,5.22237158 L9.9389726,4.43271404 L11.7494521,4.43271404 L12.0845634,5.22306507 L13.8522003,5.22306507 L13.8522003,2.46057363 L15.1118921,5.22306507 L15.8805137,5.22306507 L17.1331935,2.46057363 L17.1402055,5.22306507 L17.999,5.223 L17.9995269,6.48210144 Z M14.1744692,6.07003425 L10.6806507,6.07003425 L10.6806507,9.59336473 L14.1203767,9.59336473 L15.2290411,8.42567637 L16.297637,9.59336473 L17.4147003,9.59336473 L15.7910788,7.84190925 L17.4147003,6.07003425 L16.3461045,6.07003425 L15.2430651,7.22431507 L14.1744692,6.07003425 Z M13.7234675,6.79935788 L14.6747089,7.82857877 L13.6813185,8.86342466 L11.5434332,8.86342466 L11.5434332,8.16083904 L13.4494606,8.16083904 L13.4494606,7.44353596 L11.5434332,7.44353596 L11.5434332,6.79935788 L13.7234675,6.79935788 Z M10.8445976,2.29413527 L11.4403853,3.70208048 L10.2481164,3.70208048 L10.8445976,2.29413527 Z" id="Combined-Shape" fill="#2D66A2" fill-rule="nonzero"/>
        </g>
    </g>
</svg>