<svg xmlns="http://www.w3.org/2000/svg" xmlns:xlink="http://www.w3.org/1999/xlink" width="36px" height="25px" viewBox="0 0 36 25" version="1.1">
    <!-- Generator: Sketch 44.1 (41455) - http://www.bohemiancoding.com/sketch -->
    <title>card-generic add</title>
    <desc>Created with Sketch.</desc>
    <defs/>
    <g id="Page-1" stroke="none" stroke-width="1" fill="none" fill-rule="evenodd">
        <g id="payment-methods-sprite" transform="translate(-3.000000, -528.000000)"/>
        <g id="card-generic-add" fill="#3B71DC">
            <g id="credit-card-add">
                <g transform="translate(8.000000, 2.000000)">
                    <g id="Art" fill-rule="nonzero">
                        <g id="Group">
                            <path d="M21,3 L19,3 L19,1 C19,0.44771525 18.5522847,3.38176876e-17 18,0 C17.4477153,-3.38176876e-17 17,0.44771525 17,1 L17,3 L15,3 C14.4477153,3 14,3.44771525 14,4 C14,4.55228475 14.4477153,5 15,5 L17,5 L17,7 C17,7.55228475 17.4477153,8 18,8 C18.5522847,8 19,7.55228475 19,7 L19,5 L21,5 C21.5522847,5 22,4.55228475 22,4 C22,3.44771525 21.5522847,3 21,3 Z" id="Shape"/>
                            <path d="M3,19 L17,19 C18.6568542,19 20,17.6568542 20,16 L20,9 L2,9 L2,8 C2,7.44771525 2.44771525,7 3,7 L12,7 C12.5522847,7 13,6.55228475 13,6 C13,5.44771525 12.5522847,5 12,5 L3,5 C1.34314575,5 4.4408921e-16,6.34314575 0,8 L0,16 C4.4408921e-16,17.6568542 1.34314575,19 3,19 Z M18,12 L18,16 C18,16.5522847 17.5522847,17 17,17 L3,17 C2.44771525,17 2,16.5522847 2,16 L2,12 L18,12 Z" id="Shape"/>
                        </g>
                    </g>
                </g>
            </g>
        </g>
    </g>
</svg>