<svg id="flag" xmlns="http://www.w3.org/2000/svg" width="22" height="22" viewBox="0 0 22 22">
  <circle id="Ellipse_34" data-name="Ellipse 34" cx="11" cy="11" r="11" fill="#43a047"/>
  <g id="Group_217" data-name="Group 217" transform="translate(4.675 6.233)">
    <path id="Path_241" data-name="Path 241" d="M144.7,306.087a1.438,1.438,0,0,0,1.438,1.438h4.315a1.2,1.2,0,0,0,1.2,1.2h1.438a1.2,1.2,0,0,0,1.2-1.2v-1.438Z" transform="translate(-143.138 -299.135)" fill="#f0f0f0"/>
    <path id="Path_242" data-name="Path 242" d="M348.785,144.7v3.356a.96.96,0,0,1-.959.959v1.438a2.4,2.4,0,0,0,2.4-2.4V144.7Z" transform="translate(-337.518 -144.696)" fill="#f0f0f0"/>
    <path id="Path_243" data-name="Path 243" d="M109.481,148.052a.96.96,0,0,1-.959.959v1.438a2.4,2.4,0,0,0,2.4-2.4V144.7h-1.438Z" transform="translate(-108.522 -144.696)" fill="#f0f0f0"/>
    <rect id="Rectangle_309" data-name="Rectangle 309" width="1.438" height="3.356" transform="translate(9.109 0)" fill="#f0f0f0"/>
    <path id="Path_244" data-name="Path 244" d="M184.706,146.613a.24.24,0,0,1-.479,0v-1.918h-1.438v1.918a.24.24,0,0,1-.479,0v-1.918H180.87v1.918a1.677,1.677,0,0,0,2.637,1.376,1.663,1.663,0,0,0,1.171.288.96.96,0,0,1-.931.733v1.438a2.4,2.4,0,0,0,2.4-2.4v-3.356h-1.438v1.918Z" transform="translate(-177.754 -144.695)" fill="#f0f0f0"/>
    <rect id="Rectangle_310" data-name="Rectangle 310" width="2.157" height="1.438" transform="translate(3.116 4.315)" fill="#f0f0f0"/>
  </g>
</svg>
