<svg xmlns="http://www.w3.org/2000/svg" xmlns:xlink="http://www.w3.org/1999/xlink" width="21px" height="7px" viewBox="0 0 21 7" version="1.1">
    <!-- Generator: Sketch 44.1 (41455) - http://www.bohemiancoding.com/sketch -->
    <title>other-payment-blue</title>
    <desc>Created with Sketch.</desc>
    <defs/>
    <g id="Page-1" stroke="none" stroke-width="1" fill="none" fill-rule="evenodd">
        <g id="form-sprite" transform="translate(-4.000000, -290.000000)"/>
        <g id="form-sprite-classic" transform="translate(0.000000, -287.000000)"/>
        <g id="other-payment-blue" fill-rule="nonzero" fill="#3B71DC">
            <g id="other-icon" transform="translate(2.000000, 2.000000)">
                <g>
                    <path d="M14,4 L14,4 C15.1045695,4 16,3.1045695 16,2 C16,0.8954305 15.1045695,0 14,0 C12.8954305,0 12,0.8954305 12,2 C12,3.1045695 12.8954305,4 14,4 L14,4 Z" id="Oval-88-Copy"/>
                    <path d="M8,4 L8,4 C9.1045695,4 10,3.1045695 10,2 C10,0.8954305 9.1045695,0 8,0 C6.8954305,0 6,0.8954305 6,2 C6,3.1045695 6.8954305,4 8,4 L8,4 Z" id="Oval-88-Copy-2"/>
                    <path d="M2,4 L2,4 C3.1045695,4 4,3.1045695 4,2 C4,0.8954305 3.1045695,0 2,0 C0.8954305,0 2.22044605e-16,0.8954305 2.22044605e-16,2 C2.22044605e-16,3.1045695 0.8954305,4 2,4 L2,4 Z" id="Oval-88-Copy-3"/>
                </g>
            </g>
        </g>
    </g>
</svg>