<svg xmlns="http://www.w3.org/2000/svg" xmlns:xlink="http://www.w3.org/1999/xlink" width="18px" height="13px" viewBox="0 0 18 13" version="1.1">
    <!-- Generator: Sketch 44.1 (41455) - http://www.bohemiancoding.com/sketch -->
    <title>qcard-mini</title>
    <desc>Created with Sketch.</desc>
    <defs>
        <linearGradient x1="50%" y1="100%" x2="50%" y2="2.61080995%" id="linearGradient-1">
            <stop stop-color="#000000" stop-opacity="0.06" offset="0%"/>
            <stop stop-color="#000000" stop-opacity="0.03" offset="100%"/>
        </linearGradient>
    </defs>
    <g id="Ping-patterns-&amp;-tans" stroke="none" stroke-width="1" fill="none" fill-rule="evenodd">
        <g id="qcard-mini">
            <g id="ping/-/fund-source/qcard-mini">
                <g id="ping/-/fund-source/shim" fill="url(#linearGradient-1)">
                    <path d="M0,2.00276013 C0,0.896666251 0.892622799,1.8189894e-12 1.99508929,1.8189894e-12 L16.0049107,1.8189894e-12 C17.1067681,1.8189894e-12 18,0.893542647 18,2.00276013 L18,10.9972399 C18,12.1033337 17.1073772,13 16.0049107,13 L1.99508929,13 C0.893231902,13 0,12.1064574 0,10.9972399 L0,2.00276013 Z" id="Mask"/>
                </g>
                <g id="Group" stroke-width="1" transform="translate(3.228632, -0.220000)" fill="#F6891F">
                    <path d="M1.52513974,5.83675356 C1.52513974,3.50182244 3.35754359,1.91481578 5.18925726,1.91338022 C7.02166111,1.91266244 8.85406496,3.41353578 8.85406496,5.83675356 C8.85406496,8.348258 6.90571239,9.78022467 5.18994744,9.78022467 C3.47418248,9.78022467 1.52513974,8.21618689 1.52513974,5.83675356 M9.37238333,11.7218136 C8.5655735,11.6084047 7.75531282,11.0040358 6.95264402,10.815978 C8.90651795,10.1132736 10.3793427,8.23413133 10.3793427,5.63864689 C10.3793427,2.31174689 7.51996453,0.549602444 5.21065256,0.549602444 C2.56315684,0.549602444 -0.000138034188,2.75246244 -0.000138034188,5.83675356 C-0.000138034188,8.80978911 2.28501795,10.958098 4.91663974,11.1095491 C6.24314829,11.8646513 7.46820171,12.4675847 8.1500906,12.7209602 C8.93481496,13.0130958 10.0197637,12.8975336 10.0197637,12.8975336 L10.9418321,11.6062513 C10.9418321,11.6062513 10.2744368,11.8481424 9.37238333,11.7218136" id="Fill-1"/>
                    <path d="M3.76847137,6.309482 C3.69669359,6.41068867 3.61318291,6.483902 3.51862949,6.52768644 C3.42407607,6.57147089 3.32193077,6.593722 3.21081325,6.593722 C3.09624487,6.593722 2.99133889,6.57362422 2.8960953,6.53342867 C2.80085171,6.49251533 2.71872137,6.43581089 2.65108462,6.36331533 C2.58344786,6.29081978 2.5303047,6.20396867 2.49165513,6.102762 C2.4543859,6.00227311 2.43437094,5.89245311 2.43437094,5.773302 C2.43437094,5.65415089 2.4543859,5.54504867 2.49165513,5.44455978 C2.5303047,5.34478867 2.58344786,5.25865533 2.65108462,5.185442 C2.71872137,5.11294644 2.80085171,5.05552422 2.8960953,5.01461089 C2.99133889,4.97369756 3.09624487,4.952882 3.21081325,4.952882 C3.31295855,4.952882 3.40820214,4.97154422 3.49585385,5.00886867 C3.58419573,5.04691089 3.66218504,5.10935756 3.72844145,5.19764422 L3.61387308,5.29669756 C3.56763162,5.22348422 3.50758675,5.16965089 3.4351188,5.13591533 C3.36196068,5.10217978 3.28742222,5.08495311 3.21081325,5.08495311 C3.11349915,5.08495311 3.02584744,5.10289756 2.94716795,5.13806867 C2.86848846,5.17323978 2.80223205,5.22204867 2.74701838,5.28377756 C2.69111453,5.34550644 2.6490141,5.418002 2.61933675,5.501982 C2.5896594,5.585962 2.57516581,5.676402 2.57516581,5.773302 C2.57516581,5.870202 2.5896594,5.960642 2.61933675,6.044622 C2.6490141,6.128602 2.69111453,6.20109756 2.74701838,6.26282644 C2.80223205,6.32455533 2.86848846,6.37336422 2.94716795,6.40853533 C3.02584744,6.44370644 3.11349915,6.46165089 3.21081325,6.46165089 C3.24946282,6.46165089 3.28880256,6.45662644 3.32952265,6.44729533 C3.37093291,6.43796422 3.41027265,6.42289089 3.44961239,6.40279311 C3.48895214,6.38341311 3.5255312,6.35829089 3.56072991,6.32814422 C3.5966188,6.29799756 3.6276765,6.26139089 3.65459316,6.219042 L3.76847137,6.309482 Z" id="Fill-4"/>
                    <path d="M4.55098718,5.15149111 L4.20107051,6.00708222 L4.89055128,6.00708222 L4.55098718,5.15149111 Z M4.48542094,4.99286222 L4.62966667,4.99286222 L5.26117308,6.55402889 L5.10519444,6.55402889 L4.94093376,6.13915333 L4.14654701,6.13915333 L3.97676496,6.55402889 L3.83044872,6.55402889 L4.48542094,4.99286222 Z" id="Fill-6"/>
                    <path d="M5.61792244,5.68070867 L5.91469594,5.68070867 C5.98785406,5.68070867 6.04789893,5.67137756 6.09345021,5.65199756 C6.13969167,5.63333533 6.17558056,5.60964867 6.20111688,5.58165533 C6.22665321,5.553662 6.24321731,5.52351533 6.2528797,5.49121533 C6.26254209,5.45891533 6.26668312,5.42948644 6.26668312,5.40292867 C6.26668312,5.37637089 6.26254209,5.346942 6.2528797,5.314642 C6.24321731,5.282342 6.22665321,5.25219533 6.20111688,5.224202 C6.17558056,5.19620867 6.13969167,5.172522 6.09345021,5.15385978 C6.04789893,5.13447978 5.98785406,5.12514867 5.91469594,5.12514867 L5.61792244,5.12514867 L5.61792244,5.68070867 Z M5.47781774,4.99307756 L5.87190534,4.99307756 C5.8919203,4.99307756 5.91952714,4.99307756 5.95265534,4.99451311 C5.98647372,4.99594867 6.02374295,5.00097311 6.06377286,5.00815089 C6.10242244,5.01532867 6.14314252,5.02753089 6.18386261,5.043322 C6.22527286,5.05983089 6.26185192,5.08279978 6.29428996,5.11366422 C6.32672799,5.14452867 6.35364466,5.18400644 6.37503996,5.230662 C6.39643526,5.27803533 6.40678782,5.33545756 6.40678782,5.40292867 C6.40678782,5.47757756 6.39436474,5.53930644 6.36951859,5.58811533 C6.34467244,5.63620644 6.31361474,5.676402 6.27634551,5.70654867 C6.23838611,5.73669533 6.19766603,5.75894644 6.15211474,5.773302 C6.10725363,5.78765756 6.06377286,5.79842422 6.02305278,5.80416644 L6.45993098,6.55424422 L6.3005015,6.55424422 L5.87880705,5.81349756 L5.61792244,5.81349756 L5.61792244,6.55424422 L5.47781774,6.55424422 L5.47781774,4.99307756 Z" id="Fill-8"/>
                    <path d="M6.85671026,6.42159889 L7.14451154,6.42159889 C7.24389615,6.42159889 7.33637906,6.40867889 7.42265043,6.38283889 C7.50823162,6.35771667 7.58415043,6.31823889 7.64764615,6.26512333 C7.71045171,6.21200778 7.76152436,6.14525444 7.79741325,6.06342778 C7.83468248,5.98160111 7.85262692,5.88470111 7.85262692,5.77344556 C7.85262692,5.66147222 7.83468248,5.56529 7.79741325,5.48346333 C7.76152436,5.40163667 7.71045171,5.33416556 7.64764615,5.28176778 C7.58415043,5.22865222 7.50823162,5.18917444 7.42265043,5.16405222 C7.33637906,5.13749444 7.24389615,5.12457444 7.14451154,5.12457444 L6.85671026,5.12457444 L6.85671026,6.42159889 Z M6.71660556,4.99250333 L7.1810906,4.99250333 C7.31084274,4.99250333 7.42057991,5.00901222 7.51168248,5.04203 C7.60209487,5.07576556 7.6773235,5.11739667 7.73736838,5.16907667 C7.79741325,5.22075667 7.84503504,5.27746111 7.87954359,5.33990778 C7.91405214,5.40235444 7.93958846,5.46264778 7.95615256,5.52007 C7.9720265,5.57677444 7.98237906,5.62917222 7.98652009,5.67511 C7.99135128,5.72176556 7.99273162,5.75406556 7.99273162,5.77344556 C7.99273162,5.79282556 7.99135128,5.82512556 7.98652009,5.87106333 C7.98237906,5.91771889 7.9720265,5.96939889 7.95615256,6.02682111 C7.93958846,6.08424333 7.91405214,6.14453667 7.87954359,6.20698333 C7.84503504,6.26943 7.79741325,6.32613444 7.73736838,6.37781444 C7.6773235,6.42877667 7.60209487,6.47112556 7.51168248,6.50414333 C7.42057991,6.53787889 7.31084274,6.55438778 7.1810906,6.55438778 L6.71660556,6.55438778 L6.71660556,4.99250333 Z" id="Fill-10"/>
                </g>
            </g>
        </g>
    </g>
</svg>