<svg xmlns="http://www.w3.org/2000/svg" xmlns:xlink="http://www.w3.org/1999/xlink" width="36px" height="25px" viewBox="0 0 36 25" version="1.1">
    <!-- Generator: Sketch 41.2 (35397) - http://www.bohemiancoding.com/sketch -->
    <title>visa</title>
    <desc>Created with Sketch.</desc>
    <defs>
        <path d="M0,2.00359486 C0,0.897039974 0.889892578,1.8189894e-12 1.99970728,1.8189894e-12 L34.0002927,1.8189894e-12 C35.1047006,1.8189894e-12 36,0.889763236 36,2.00359486 L36,22.9964051 C36,24.10296 35.1101074,25 34.0002927,25 L1.99970728,25 C0.895299444,25 0,24.1102368 0,22.9964051 L0,2.00359486 Z" id="path-1"/>
    </defs>
    <g id="Page-1" stroke="none" stroke-width="1" fill="none" fill-rule="evenodd">
        <g id="payment-methods-sprite" transform="translate(-3.000000, -38.000000)"/>
        <g id="visa">
            <g id="visa-card">
                <mask id="mask-2" fill="white">
                    <use xlink:href="#path-1"/>
                </mask>
                <use id="Mask" fill-opacity="0.03" fill="#000000" fill-rule="evenodd" xlink:href="#path-1"/>
                <g id="Visa_2014_logo_detail" stroke-width="1" fill-rule="evenodd" mask="url(#mask-2)">
                    <g transform="translate(2.000000, 6.883817)">
                        <polygon id="polygon3052" fill="#3F9EFF" points="12.5387915 1.12133519 15 1.12133519 13.4601476 10.1290641 11 10.1290641"/>
                        <path d="M23,1.48785132 C22.4717668,1.31105699 21.6441407,1.12133519 20.6105079,1.12133519 C17.9761353,1.12133519 16.120473,2.30495674 16.1046337,4.00121951 C16.0897943,5.25513978 17.4294148,5.95460524 18.4407131,6.37207304 C19.4784928,6.79979443 19.8273509,7.07260861 19.8223544,7.45454879 C19.8158088,8.03949459 18.9936291,8.30673699 18.2273609,8.30673699 C17.1602517,8.30673699 16.5933446,8.1744751 15.7177521,7.84865794 L15.3741902,7.70997768 L15,9.66349696 C15.6226677,9.90706861 16.774219,10.1181431 17.9698398,10.1290641 C20.7723457,10.1290641 22.5916837,8.95903906 22.6123692,7.14763235 C22.6224119,6.15489187 21.9120545,5.39943716 20.3739715,4.77664494 C19.4420679,4.37295121 18.8713639,4.10356941 18.8774099,3.69479381 C18.8774099,3.33206681 19.360475,2.944198 20.4042008,2.944198 C21.2760461,2.93211751 21.9075575,3.10173486 22.3996668,3.27852918 L22.6385509,3.37922975 L23,1.48785132" id="path3054" fill="#3F9EFF"/>
                        <path d="M28.9714254,1.12133519 L27.034728,1.12133519 C26.434803,1.12133519 25.9857987,1.28184133 25.7223338,1.86879845 L22,10.1290641 L24.6318818,10.1290641 C24.6318818,10.1290641 25.0621906,9.0184125 25.1595165,8.77456891 C25.447125,8.77456891 28.0038991,8.7784349 28.3693871,8.7784349 C28.4444009,9.0939681 28.6743286,10.1290624 28.6743286,10.1290624 L31,10.1290624 L28.9714254,1.12133519 L28.9714254,1.12133519 Z M26,6.12560972 C26.1992642,5.66427217 26.9599257,3.88727148 26.9599257,3.88727148 C26.9457021,3.90858153 27.1576997,3.42368468 27.2793897,3.12305272 L27.4422145,3.81340193 C27.4422145,3.81340193 27.903551,5.7247259 28,6.12552742 L26,6.12562903 L26,6.12560972 Z" id="path3056" fill="#3F9EFF"/>
                        <path d="M6.79960792,7.27373617 L6.5334704,6.02343851 C6.06847088,4.58215579 4.6196806,3.02058568 3,2.23880975 L5.28397246,10.1290641 L7.98336043,10.1261145 L12,1.12133519 L9.29745625,1.12133519 L6.79960792,7.27373617 Z" id="path3058" fill="#3F9EFF"/>
                        <path d="M0.430516892,0.435641038 L0.398993492,0.627049274 C3.49759091,1.38854671 5.54790799,3.22880085 6.39899349,5.43993488 C6.39899349,5.43993488 5.89203139,2.96516602 5.63855034,1.7277816 C5.60335235,1.55596029 5.53295637,1.21231767 5.53295637,1.21231767 C5.3834401,0.629774949 4.94979662,0.455942623 4.41334335,0.435641038 L0.430516892,0.435641038 Z" id="path3060" fill="#FF7733"/>
                    </g>
                </g>
            </g>
        </g>
    </g>
</svg>