<svg xmlns="http://www.w3.org/2000/svg" xmlns:xlink="http://www.w3.org/1999/xlink" width="18px" height="13px" viewBox="0 0 18 13" version="1.1">
    <!-- Generator: Sketch 44.1 (41455) - http://www.bohemiancoding.com/sketch -->
    <title>visa-mini</title>
    <desc>Created with Sketch.</desc>
    <defs>
        <linearGradient x1="50%" y1="100%" x2="50%" y2="2.61080995%" id="linearGradient-1">
            <stop stop-color="#000000" stop-opacity="0.06" offset="0%"/>
            <stop stop-color="#000000" stop-opacity="0.03" offset="100%"/>
        </linearGradient>
    </defs>
    <g id="Ping-patterns-&amp;-tans" stroke="none" stroke-width="1" fill="none" fill-rule="evenodd">
        <g id="visa-mini">
            <g id="ping/-/fund-source/visa-mini">
                <g id="ping/-/fund-source/shim" fill="url(#linearGradient-1)">
                    <path d="M0,2.00276013 C0,0.896666251 0.892622799,1.8189894e-12 1.99508929,1.8189894e-12 L16.0049107,1.8189894e-12 C17.1067681,1.8189894e-12 18,0.893542647 18,2.00276013 L18,10.9972399 C18,12.1033337 17.1073772,13 16.0049107,13 L1.99508929,13 C0.893231902,13 0,12.1064574 0,10.9972399 L0,2.00276013 Z" id="Mask"/>
                </g>
                <g id="visa" stroke-width="1" transform="translate(0.000000, 3.000000)">
                    <polygon id="polygon3052" fill="#3F9EFF" points="7.11937196 0.931969475 8.47466849 0.931969475 7.6267287 6.09060171 6.27201637 6.09060171"/>
                    <path d="M12.8799727,1.14186943 C12.5890943,1.04062117 12.1333511,0.931969475 11.5641677,0.931969475 C10.1135162,0.931969475 9.09167152,1.60981717 9.08294945,2.58124914 C9.07477793,3.29935617 9.81245738,3.69993273 10.369342,3.93901218 C10.9408089,4.18396375 11.1329122,4.34020158 11.1301608,4.55893473 C11.1265564,4.89392708 10.6738124,5.04697401 10.2518568,5.04697401 C9.66423923,5.04697401 9.35206444,4.97122901 8.86990801,4.78463692 L8.6807212,4.70521619 L8.47466849,5.82397627 C8.81754858,5.96346721 9.45166529,6.08434739 10.1100495,6.09060171 C11.6532858,6.09060171 12.655128,5.42054059 12.6665188,4.3831669 C12.6720489,3.81463479 12.2808813,3.38199377 11.4339159,3.02532718 C10.9207511,2.794136 10.6064855,2.63986385 10.6098148,2.40576234 C10.6098148,2.19803237 10.8758209,1.97590396 11.4505621,1.97590396 C11.9306551,1.96898559 12.278405,2.06612367 12.5493914,2.16737194 L12.6809361,2.2250421 L12.8799727,1.14186943" id="path3054" fill="#3F9EFF"/>
                    <path d="M16.1682159,0.931969475 L15.1017483,0.931969475 C14.7713917,0.931969475 14.5241417,1.02388966 14.3790613,1.36003388 L12.3293097,6.09060171 L13.7785897,6.09060171 C13.7785897,6.09060171 14.0155449,5.45454314 14.0691386,5.31489646 C14.227514,5.31489646 15.6354349,5.31711047 15.8366957,5.31711047 C15.878003,5.49781304 16.0046157,6.09060072 16.0046157,6.09060072 L17.285277,6.09060072 L16.1682159,0.931969475 L16.1682159,0.931969475 Z M14.5319618,3.79786521 C14.6416892,3.53366202 15.0605574,2.51599229 15.0605574,2.51599229 C15.052725,2.52819633 15.1694643,2.25050097 15.2364744,2.07833219 L15.326136,2.47368797 C15.326136,2.47368797 15.580177,3.56828324 15.6332879,3.79781808 L14.5319618,3.79787627 L14.5319618,3.79786521 Z" id="path3056" fill="#3F9EFF"/>
                    <path d="M3.95901573,4.45538523 L3.81246364,3.73935283 C3.5564056,2.91394528 2.75861035,2.01965039 1.86671213,1.57193548 L3.12441132,6.09060171 L4.61086448,6.08891252 L6.8226794,0.931969475 L5.33448847,0.931969475 L3.95901573,4.45538523 Z" id="path3058" fill="#3F9EFF"/>
                    <path d="M0.451792772,0.539279601 L0.434434002,0.648897098 C2.14071704,1.08499872 3.26975086,2.13889304 3.73841218,3.4051864 L3.31966425,1.279275 C3.30028202,1.18087473 3.26151755,0.984074192 3.26151755,0.984074192 C3.17918447,0.650458064 2.94039304,0.550906107 2.64498806,0.539279601 L0.451792772,0.539279601 Z" id="path3060" fill="#FF7733"/>
                </g>
            </g>
        </g>
    </g>
</svg>